<mxfile host="Electron" agent="Mozilla/5.0 (Windows NT 10.0; Win64; x64) AppleWebKit/537.36 (KHTML, like Gecko) draw.io/27.0.9 Chrome/134.0.6998.205 Electron/35.4.0 Safari/537.36" version="27.0.9">
  <diagram id="x9XNGW5LkidrqF7Gqg8y" name="Page-1">
    <mxGraphModel dx="888" dy="522" grid="1" gridSize="10" guides="1" tooltips="1" connect="1" arrows="1" fold="1" page="1" pageScale="1" pageWidth="850" pageHeight="1100" math="0" shadow="0">
      <root>
        <mxCell id="0" />
        <mxCell id="1" parent="0" />
        <mxCell id="3" value="0" style="ellipse;whiteSpace=wrap;html=1;aspect=fixed;flipH=1;flipV=1;" parent="1" vertex="1">
          <mxGeometry x="260" y="85" width="40" height="40" as="geometry" />
        </mxCell>
        <mxCell id="5" value="1" style="ellipse;whiteSpace=wrap;html=1;aspect=fixed;flipH=1;flipV=1;" parent="1" vertex="1">
          <mxGeometry x="465" y="90" width="40" height="40" as="geometry" />
        </mxCell>
        <mxCell id="7vG0Gbh248mzIWySEtUM-73" style="rounded=0;orthogonalLoop=1;jettySize=auto;html=1;" edge="1" parent="1" source="6" target="3">
          <mxGeometry relative="1" as="geometry" />
        </mxCell>
        <mxCell id="6" value="2" style="ellipse;whiteSpace=wrap;html=1;aspect=fixed;flipH=1;flipV=1;" parent="1" vertex="1">
          <mxGeometry x="315" y="165" width="40" height="40" as="geometry" />
        </mxCell>
        <mxCell id="50" style="edgeStyle=none;html=1;" parent="1" source="8" target="3" edge="1">
          <mxGeometry relative="1" as="geometry" />
        </mxCell>
        <mxCell id="8" value="3" style="ellipse;whiteSpace=wrap;html=1;aspect=fixed;flipH=1;flipV=1;" parent="1" vertex="1">
          <mxGeometry x="200" y="165" width="40" height="40" as="geometry" />
        </mxCell>
        <mxCell id="52" style="edgeStyle=none;html=1;" parent="1" source="9" target="5" edge="1">
          <mxGeometry relative="1" as="geometry" />
        </mxCell>
        <mxCell id="9" value="4" style="ellipse;whiteSpace=wrap;html=1;aspect=fixed;flipH=1;flipV=1;" parent="1" vertex="1">
          <mxGeometry x="405" y="165" width="40" height="40" as="geometry" />
        </mxCell>
        <mxCell id="55" style="edgeStyle=none;html=1;" parent="1" source="10" target="6" edge="1">
          <mxGeometry relative="1" as="geometry" />
        </mxCell>
        <mxCell id="10" value="5" style="ellipse;whiteSpace=wrap;html=1;aspect=fixed;flipH=1;flipV=1;" parent="1" vertex="1">
          <mxGeometry x="315" y="240" width="40" height="40" as="geometry" />
        </mxCell>
        <mxCell id="51" style="edgeStyle=none;html=1;" parent="1" source="11" target="3" edge="1">
          <mxGeometry relative="1" as="geometry" />
        </mxCell>
        <mxCell id="11" value="6" style="ellipse;whiteSpace=wrap;html=1;aspect=fixed;flipH=1;flipV=1;" parent="1" vertex="1">
          <mxGeometry x="260" y="165" width="40" height="40" as="geometry" />
        </mxCell>
        <mxCell id="53" style="edgeStyle=none;html=1;" parent="1" source="12" target="5" edge="1">
          <mxGeometry relative="1" as="geometry" />
        </mxCell>
        <mxCell id="12" value="7" style="ellipse;whiteSpace=wrap;html=1;aspect=fixed;flipH=1;flipV=1;" parent="1" vertex="1">
          <mxGeometry x="465" y="165" width="40" height="40" as="geometry" />
        </mxCell>
        <mxCell id="54" style="edgeStyle=none;html=1;" parent="1" source="13" target="5" edge="1">
          <mxGeometry relative="1" as="geometry" />
        </mxCell>
        <mxCell id="13" value="10" style="ellipse;whiteSpace=wrap;html=1;aspect=fixed;flipH=1;flipV=1;" parent="1" vertex="1">
          <mxGeometry x="525" y="165" width="40" height="40" as="geometry" />
        </mxCell>
        <mxCell id="49" value="&lt;div style=&quot;font-family: Consolas, &amp;quot;Courier New&amp;quot;, monospace; line-height: 19px;&quot;&gt;&lt;span style=&quot;&quot;&gt;&lt;font style=&quot;font-size: 9px;&quot;&gt;并查集形成的数组表示&lt;/font&gt;&lt;/span&gt;&lt;/div&gt;" style="text;html=1;strokeColor=none;fillColor=none;align=center;verticalAlign=middle;whiteSpace=wrap;rounded=0;fontColor=default;labelBackgroundColor=none;labelBorderColor=none;" parent="1" vertex="1">
          <mxGeometry x="130" y="305" width="80" height="30" as="geometry" />
        </mxCell>
        <mxCell id="56" value="S&lt;sub&gt;13&lt;/sub&gt;" style="text;html=1;strokeColor=none;fillColor=none;align=center;verticalAlign=middle;whiteSpace=wrap;rounded=0;" parent="1" vertex="1">
          <mxGeometry x="200" y="90" width="60" height="30" as="geometry" />
        </mxCell>
        <mxCell id="58" value="S&lt;span style=&quot;font-size: 10px;&quot;&gt;2&lt;/span&gt;" style="text;html=1;strokeColor=none;fillColor=none;align=center;verticalAlign=middle;whiteSpace=wrap;rounded=0;" parent="1" vertex="1">
          <mxGeometry x="415" y="95" width="60" height="30" as="geometry" />
        </mxCell>
        <mxCell id="28" value="-5" style="rounded=0;whiteSpace=wrap;html=1;" parent="1" vertex="1">
          <mxGeometry x="225" y="320" width="30" height="30" as="geometry" />
        </mxCell>
        <mxCell id="29" value="-4" style="rounded=0;whiteSpace=wrap;html=1;" parent="1" vertex="1">
          <mxGeometry x="255" y="320" width="30" height="30" as="geometry" />
        </mxCell>
        <mxCell id="30" value="0" style="rounded=0;whiteSpace=wrap;html=1;" parent="1" vertex="1">
          <mxGeometry x="285" y="320" width="30" height="30" as="geometry" />
        </mxCell>
        <mxCell id="31" value="0" style="rounded=0;whiteSpace=wrap;html=1;" parent="1" vertex="1">
          <mxGeometry x="315" y="320" width="30" height="30" as="geometry" />
        </mxCell>
        <mxCell id="32" value="1" style="rounded=0;whiteSpace=wrap;html=1;" parent="1" vertex="1">
          <mxGeometry x="345" y="320" width="30" height="30" as="geometry" />
        </mxCell>
        <mxCell id="33" value="2" style="rounded=0;whiteSpace=wrap;html=1;" parent="1" vertex="1">
          <mxGeometry x="375" y="320" width="30" height="30" as="geometry" />
        </mxCell>
        <mxCell id="34" value="0" style="rounded=0;whiteSpace=wrap;html=1;" parent="1" vertex="1">
          <mxGeometry x="405" y="320" width="30" height="30" as="geometry" />
        </mxCell>
        <mxCell id="35" value="1" style="rounded=0;whiteSpace=wrap;html=1;" parent="1" vertex="1">
          <mxGeometry x="435" y="320" width="30" height="30" as="geometry" />
        </mxCell>
        <mxCell id="36" value="1" style="rounded=0;whiteSpace=wrap;html=1;" parent="1" vertex="1">
          <mxGeometry x="465" y="320" width="30" height="30" as="geometry" />
        </mxCell>
        <mxCell id="37" value="0" style="text;html=1;strokeColor=none;fillColor=none;align=center;verticalAlign=middle;whiteSpace=wrap;rounded=0;" parent="1" vertex="1">
          <mxGeometry x="210" y="290" width="60" height="30" as="geometry" />
        </mxCell>
        <mxCell id="38" value="1" style="text;html=1;strokeColor=none;fillColor=none;align=center;verticalAlign=middle;whiteSpace=wrap;rounded=0;" parent="1" vertex="1">
          <mxGeometry x="240" y="290" width="60" height="30" as="geometry" />
        </mxCell>
        <mxCell id="39" value="2" style="text;html=1;strokeColor=none;fillColor=none;align=center;verticalAlign=middle;whiteSpace=wrap;rounded=0;" parent="1" vertex="1">
          <mxGeometry x="270" y="290" width="60" height="30" as="geometry" />
        </mxCell>
        <mxCell id="40" value="3" style="text;html=1;strokeColor=none;fillColor=none;align=center;verticalAlign=middle;whiteSpace=wrap;rounded=0;" parent="1" vertex="1">
          <mxGeometry x="300" y="290" width="60" height="30" as="geometry" />
        </mxCell>
        <mxCell id="41" value="4" style="text;html=1;strokeColor=none;fillColor=none;align=center;verticalAlign=middle;whiteSpace=wrap;rounded=0;" parent="1" vertex="1">
          <mxGeometry x="330" y="290" width="60" height="30" as="geometry" />
        </mxCell>
        <mxCell id="42" value="5" style="text;html=1;strokeColor=none;fillColor=none;align=center;verticalAlign=middle;whiteSpace=wrap;rounded=0;" parent="1" vertex="1">
          <mxGeometry x="360" y="290" width="60" height="30" as="geometry" />
        </mxCell>
        <mxCell id="43" value="6" style="text;html=1;strokeColor=none;fillColor=none;align=center;verticalAlign=middle;whiteSpace=wrap;rounded=0;" parent="1" vertex="1">
          <mxGeometry x="390" y="290" width="60" height="30" as="geometry" />
        </mxCell>
        <mxCell id="44" value="7" style="text;html=1;strokeColor=none;fillColor=none;align=center;verticalAlign=middle;whiteSpace=wrap;rounded=0;" parent="1" vertex="1">
          <mxGeometry x="420" y="290" width="60" height="30" as="geometry" />
        </mxCell>
        <mxCell id="45" value="10" style="text;html=1;strokeColor=none;fillColor=none;align=center;verticalAlign=middle;whiteSpace=wrap;rounded=0;" parent="1" vertex="1">
          <mxGeometry x="450" y="290" width="60" height="30" as="geometry" />
        </mxCell>
      </root>
    </mxGraphModel>
  </diagram>
</mxfile>
